<?xml version="1.0" encoding="UTF-8" standalone="no"?>
<!DOCTYPE svg PUBLIC "-//W3C//DTD SVG 1.1//EN"
 "http://www.w3.org/Graphics/SVG/1.1/DTD/svg11.dtd">
<!-- Generated by graphviz version 2.43.0 (0)
 -->
<!-- Title: %3 Pages: 1 -->
<svg width="2324pt" height="1004pt"
 viewBox="0.00 0.00 2324.00 1004.00" xmlns="http://www.w3.org/2000/svg" xmlns:xlink="http://www.w3.org/1999/xlink">
<g id="graph0" class="graph" transform="scale(1 1) rotate(0) translate(4 1000)">
<title>%3</title>
<polygon fill="#ffffff" stroke="transparent" points="-4,4 -4,-1000 2320,-1000 2320,4 -4,4"/>
<!-- oem11pinConnector -->
<g id="node1" class="node">
<title>oem11pinConnector</title>
<polygon fill="#ffffff" stroke="black" points="247,-458 0,-458 0,0 247,0 247,-458"/>
<polygon fill="none" stroke="black" points="0.5,-435 0.5,-458 247.5,-458 247.5,-435 0.5,-435"/>
<text text-anchor="start" x="63" y="-442.8" font-family="arial" font-size="14.00">oem11pinConnector</text>
<polygon fill="none" stroke="black" points="0.5,-412 0.5,-435 78.5,-435 78.5,-412 0.5,-412"/>
<text text-anchor="start" x="28" y="-419.8" font-family="arial" font-size="14.00">???</text>
<polygon fill="none" stroke="black" points="78.5,-412 78.5,-435 156.5,-435 156.5,-412 78.5,-412"/>
<text text-anchor="start" x="106" y="-419.8" font-family="arial" font-size="14.00">???</text>
<polygon fill="none" stroke="black" points="156.5,-412 156.5,-435 247.5,-435 247.5,-412 156.5,-412"/>
<text text-anchor="start" x="183.5" y="-419.8" font-family="arial" font-size="14.00">11&#45;pin</text>
<polygon fill="none" stroke="black" points="0.5,-389 0.5,-412 223.5,-412 223.5,-389 0.5,-389"/>
<text text-anchor="start" x="55" y="-396.8" font-family="arial" font-size="14.00">Switched +12 volts</text>
<polygon fill="none" stroke="black" points="223.5,-389 223.5,-412 247.5,-412 247.5,-389 223.5,-389"/>
<text text-anchor="start" x="231.5" y="-396.8" font-family="arial" font-size="14.00">1</text>
<polygon fill="none" stroke="black" points="0.5,-366 0.5,-389 223.5,-389 223.5,-366 0.5,-366"/>
<text text-anchor="start" x="61" y="-373.8" font-family="arial" font-size="14.00">PTO status input</text>
<polygon fill="none" stroke="black" points="223.5,-366 223.5,-389 247.5,-389 247.5,-366 223.5,-366"/>
<text text-anchor="start" x="231.5" y="-373.8" font-family="arial" font-size="14.00">2</text>
<polygon fill="none" stroke="black" points="0.5,-343 0.5,-366 223.5,-366 223.5,-343 0.5,-343"/>
<text text-anchor="start" x="59.5" y="-350.8" font-family="arial" font-size="14.00">Constant 12 volts</text>
<polygon fill="none" stroke="black" points="223.5,-343 223.5,-366 247.5,-366 247.5,-343 223.5,-343"/>
<text text-anchor="start" x="231.5" y="-350.8" font-family="arial" font-size="14.00">3</text>
<polygon fill="none" stroke="black" points="0.5,-320 0.5,-343 223.5,-343 223.5,-320 0.5,-320"/>
<text text-anchor="start" x="81" y="-327.8" font-family="arial" font-size="14.00">A/C clutch</text>
<polygon fill="none" stroke="black" points="223.5,-320 223.5,-343 247.5,-343 247.5,-320 223.5,-320"/>
<text text-anchor="start" x="231.5" y="-327.8" font-family="arial" font-size="14.00">4</text>
<polygon fill="none" stroke="black" points="0.5,-297 0.5,-320 223.5,-320 223.5,-297 0.5,-297"/>
<text text-anchor="start" x="37" y="-304.8" font-family="arial" font-size="14.00">A/C high pressure switch</text>
<polygon fill="none" stroke="black" points="223.5,-297 223.5,-320 247.5,-320 247.5,-297 223.5,-297"/>
<text text-anchor="start" x="231.5" y="-304.8" font-family="arial" font-size="14.00">5</text>
<polygon fill="none" stroke="black" points="0.5,-274 0.5,-297 223.5,-297 223.5,-274 0.5,-274"/>
<text text-anchor="start" x="4.5" y="-281.8" font-family="arial" font-size="14.00">transmission shift modulation signal</text>
<polygon fill="none" stroke="black" points="223.5,-274 223.5,-297 247.5,-297 247.5,-274 223.5,-274"/>
<text text-anchor="start" x="231.5" y="-281.8" font-family="arial" font-size="14.00">6</text>
<polygon fill="none" stroke="black" points="0.5,-251 0.5,-274 223.5,-274 223.5,-251 0.5,-251"/>
<text text-anchor="start" x="66" y="-258.8" font-family="arial" font-size="14.00">VP44 +12 volts</text>
<polygon fill="none" stroke="black" points="223.5,-251 223.5,-274 247.5,-274 247.5,-251 223.5,-251"/>
<text text-anchor="start" x="231.5" y="-258.8" font-family="arial" font-size="14.00">7</text>
<polygon fill="none" stroke="black" points="0.5,-228 0.5,-251 223.5,-251 223.5,-228 0.5,-228"/>
<text text-anchor="start" x="33.5" y="-235.8" font-family="arial" font-size="14.00">VP44 power shutoff signal</text>
<polygon fill="none" stroke="black" points="223.5,-228 223.5,-251 247.5,-251 247.5,-228 223.5,-228"/>
<text text-anchor="start" x="231.5" y="-235.8" font-family="arial" font-size="14.00">8</text>
<polygon fill="none" stroke="black" points="0.5,-205 0.5,-228 223.5,-228 223.5,-205 0.5,-205"/>
<text text-anchor="start" x="80" y="-212.8" font-family="arial" font-size="14.00">fuel heater</text>
<polygon fill="none" stroke="black" points="223.5,-205 223.5,-228 247.5,-228 247.5,-205 223.5,-205"/>
<text text-anchor="start" x="231.5" y="-212.8" font-family="arial" font-size="14.00">9</text>
<polygon fill="none" stroke="black" points="0.5,-182 0.5,-205 223.5,-205 223.5,-182 0.5,-182"/>
<text text-anchor="start" x="90.5" y="-189.8" font-family="arial" font-size="14.00">ground</text>
<polygon fill="none" stroke="black" points="223.5,-182 223.5,-205 247.5,-205 247.5,-182 223.5,-182"/>
<text text-anchor="start" x="227.5" y="-189.8" font-family="arial" font-size="14.00">10</text>
<polygon fill="none" stroke="black" points="0.5,-159 0.5,-182 223.5,-182 223.5,-159 0.5,-159"/>
<text text-anchor="start" x="77.5" y="-166.8" font-family="arial" font-size="14.00">VSS Signal</text>
<polygon fill="none" stroke="black" points="223.5,-159 223.5,-182 247.5,-182 247.5,-159 223.5,-159"/>
<text text-anchor="start" x="227.5" y="-166.8" font-family="arial" font-size="14.00">11</text>
<polygon fill="none" stroke="black" points="0.5,0 0.5,-159 247.5,-159 247.5,0 0.5,0"/>
<image xlink:href="connectors/oem11pin.png" width="191px" height="151px" preserveAspectRatio="xMinYMin meet" x="28.5" y="-155"/>
</g>
<!-- relayCable -->
<g id="node5" class="node">
<title>relayCable</title>
<polygon fill="#ffffff" stroke="black" points="2072,-471 1556,-471 1556,-271 2072,-271 2072,-471"/>
<polygon fill="none" stroke="black" points="1556,-448 1556,-471 2072,-471 2072,-448 1556,-448"/>
<text text-anchor="start" x="1781.5" y="-455.8" font-family="arial" font-size="14.00">relayCable</text>
<polygon fill="none" stroke="black" points="1556,-425 1556,-448 2072,-448 2072,-425 1556,-425"/>
<text text-anchor="start" x="1806.5" y="-432.8" font-family="arial" font-size="14.00">4x</text>
<text text-anchor="start" x="1703" y="-411.8" font-family="arial" font-size="14.00"> </text>
<text text-anchor="start" x="1630.5" y="-392.8" font-family="arial" font-size="14.00">truckConnector:5:ground</text>
<text text-anchor="start" x="1868" y="-392.8" font-family="arial" font-size="14.00"> &#160;&#160;&#160;&#160;1:BK &#160;&#160;&#160;</text>
<text text-anchor="start" x="1948" y="-392.8" font-family="arial" font-size="14.00">relayConnector:3:85</text>
<polygon fill="#000000" stroke="transparent" points="1556,-385 1556,-387 2072,-387 2072,-385 1556,-385"/>
<polygon fill="#000000" stroke="transparent" points="1556,-383 1556,-385 2072,-385 2072,-383 1556,-383"/>
<polygon fill="#000000" stroke="transparent" points="1556,-381 1556,-383 2072,-383 2072,-381 1556,-381"/>
<polygon fill="#000000" stroke="transparent" points="1556,-379 1556,-381 2072,-381 2072,-379 1556,-379"/>
<polygon fill="#000000" stroke="transparent" points="1556,-377 1556,-379 2072,-379 2072,-377 1556,-377"/>
<text text-anchor="start" x="1584.5" y="-363.8" font-family="arial" font-size="14.00">oem11pinConnector:3:Constant 12 volts</text>
<text text-anchor="start" x="1856" y="-363.8" font-family="arial" font-size="14.00"> &#160;&#160;&#160;&#160;2:RDWH &#160;&#160;&#160;</text>
<text text-anchor="start" x="1948" y="-363.8" font-family="arial" font-size="14.00">relayConnector:1:30</text>
<polygon fill="#000000" stroke="transparent" points="1556,-356 1556,-358 2072,-358 2072,-356 1556,-356"/>
<polygon fill="#ff0000" stroke="transparent" points="1556,-354 1556,-356 2072,-356 2072,-354 1556,-354"/>
<polygon fill="#ffffff" stroke="transparent" points="1556,-352 1556,-354 2072,-354 2072,-352 1556,-352"/>
<polygon fill="#ff0000" stroke="transparent" points="1556,-350 1556,-352 2072,-352 2072,-350 1556,-350"/>
<polygon fill="#000000" stroke="transparent" points="1556,-348 1556,-350 2072,-350 2072,-348 1556,-348"/>
<text text-anchor="start" x="1558" y="-334.8" font-family="arial" font-size="14.00">oem11pinConnector:8:VP44 power shutoff signal</text>
<text text-anchor="start" x="1856" y="-334.8" font-family="arial" font-size="14.00"> &#160;&#160;&#160;&#160;3:BNWH &#160;&#160;&#160;</text>
<text text-anchor="start" x="1948" y="-334.8" font-family="arial" font-size="14.00">relayConnector:4:86</text>
<polygon fill="#000000" stroke="transparent" points="1556,-327 1556,-329 2072,-329 2072,-327 1556,-327"/>
<polygon fill="#895956" stroke="transparent" points="1556,-325 1556,-327 2072,-327 2072,-325 1556,-325"/>
<polygon fill="#ffffff" stroke="transparent" points="1556,-323 1556,-325 2072,-325 2072,-323 1556,-323"/>
<polygon fill="#895956" stroke="transparent" points="1556,-321 1556,-323 2072,-323 2072,-321 1556,-321"/>
<polygon fill="#000000" stroke="transparent" points="1556,-319 1556,-321 2072,-321 2072,-319 1556,-319"/>
<text text-anchor="start" x="1590.5" y="-305.8" font-family="arial" font-size="14.00">oem11pinConnector:7:VP44 +12 volts</text>
<text text-anchor="start" x="1857" y="-305.8" font-family="arial" font-size="14.00"> &#160;&#160;&#160;&#160;4:RDGN &#160;&#160;&#160;</text>
<text text-anchor="start" x="1948" y="-305.8" font-family="arial" font-size="14.00">relayConnector:2:87</text>
<polygon fill="#000000" stroke="transparent" points="1556,-298 1556,-300 2072,-300 2072,-298 1556,-298"/>
<polygon fill="#ff0000" stroke="transparent" points="1556,-296 1556,-298 2072,-298 2072,-296 1556,-296"/>
<polygon fill="#00ff00" stroke="transparent" points="1556,-294 1556,-296 2072,-296 2072,-294 1556,-294"/>
<polygon fill="#ff0000" stroke="transparent" points="1556,-292 1556,-294 2072,-294 2072,-292 1556,-292"/>
<polygon fill="#000000" stroke="transparent" points="1556,-290 1556,-292 2072,-292 2072,-290 1556,-290"/>
<text text-anchor="start" x="1703" y="-276.8" font-family="arial" font-size="14.00"> </text>
</g>
<!-- oem11pinConnector&#45;&#45;relayCable -->
<g id="edge1" class="edge">
<title>oem11pinConnector:e&#45;&#45;relayCable:w</title>
<path fill="none" stroke="#000000" stroke-width="2" d="M247,-351C828.72,-351 974.17,-349 1556,-349"/>
<path fill="none" stroke="#ff0000" stroke-width="2" d="M247,-353C828.75,-353 974.19,-351 1556,-351"/>
<path fill="none" stroke="#ffffff" stroke-width="2" d="M247,-355C828.78,-355 974.22,-353 1556,-353"/>
<path fill="none" stroke="#ff0000" stroke-width="2" d="M247,-357C828.81,-357 974.25,-355 1556,-355"/>
<path fill="none" stroke="#000000" stroke-width="2" d="M247,-359C828.83,-359 974.28,-357 1556,-357"/>
</g>
<!-- oem11pinConnector&#45;&#45;relayCable -->
<g id="edge3" class="edge">
<title>oem11pinConnector:e&#45;&#45;relayCable:w</title>
<path fill="none" stroke="#000000" stroke-width="2" d="M247,-236C832,-236.55 975.05,-320.55 1556,-320"/>
<path fill="none" stroke="#895956" stroke-width="2" d="M247,-238C830.99,-238.28 974.04,-322.28 1556,-322"/>
<path fill="none" stroke="#ffffff" stroke-width="2" d="M247,-240C829.97,-240 973.03,-324 1556,-324"/>
<path fill="none" stroke="#895956" stroke-width="2" d="M247,-242C828.96,-241.72 972.01,-325.72 1556,-326"/>
<path fill="none" stroke="#000000" stroke-width="2" d="M247,-244C827.95,-243.45 971,-327.45 1556,-328"/>
</g>
<!-- oem11pinConnector&#45;&#45;relayCable -->
<g id="edge5" class="edge">
<title>oem11pinConnector:e&#45;&#45;relayCable:w</title>
<path fill="none" stroke="#000000" stroke-width="2" d="M247,-259C829.81,-259.09 974.91,-291.09 1556,-291"/>
<path fill="none" stroke="#ff0000" stroke-width="2" d="M247,-261C829.38,-261.05 974.48,-293.05 1556,-293"/>
<path fill="none" stroke="#00ff00" stroke-width="2" d="M247,-263C828.95,-263 974.05,-295 1556,-295"/>
<path fill="none" stroke="#ff0000" stroke-width="2" d="M247,-265C828.52,-264.95 973.62,-296.95 1556,-297"/>
<path fill="none" stroke="#000000" stroke-width="2" d="M247,-267C828.09,-266.91 973.19,-298.91 1556,-299"/>
</g>
<!-- truckWiringCable -->
<g id="node6" class="node">
<title>truckWiringCable</title>
<polygon fill="#ffffff" stroke="black" points="1058,-861 391,-861 391,-603 1058,-603 1058,-861"/>
<polygon fill="none" stroke="black" points="391.5,-838 391.5,-861 1058.5,-861 1058.5,-838 391.5,-838"/>
<text text-anchor="start" x="673" y="-845.8" font-family="arial" font-size="14.00">truckWiringCable</text>
<polygon fill="none" stroke="black" points="391.5,-815 391.5,-838 1058.5,-838 1058.5,-815 391.5,-815"/>
<text text-anchor="start" x="717.5" y="-822.8" font-family="arial" font-size="14.00">6x</text>
<text text-anchor="start" x="540.5" y="-801.8" font-family="arial" font-size="14.00"> </text>
<text text-anchor="start" x="417.5" y="-782.8" font-family="arial" font-size="14.00">oem11pinConnector:1:Switched +12 volts</text>
<text text-anchor="start" x="697" y="-782.8" font-family="arial" font-size="14.00"> &#160;&#160;&#160;&#160;1:GNBK &#160;&#160;&#160;</text>
<text text-anchor="start" x="787.5" y="-782.8" font-family="arial" font-size="14.00">truckConnector:1:hot in run and start 10 amp</text>
<polygon fill="#000000" stroke="transparent" points="391.5,-775 391.5,-777 1058.5,-777 1058.5,-775 391.5,-775"/>
<polygon fill="#00ff00" stroke="transparent" points="391.5,-773 391.5,-775 1058.5,-775 1058.5,-773 391.5,-773"/>
<polygon fill="#000000" stroke="transparent" points="391.5,-771 391.5,-773 1058.5,-773 1058.5,-771 391.5,-771"/>
<polygon fill="#00ff00" stroke="transparent" points="391.5,-769 391.5,-771 1058.5,-771 1058.5,-769 391.5,-769"/>
<polygon fill="#000000" stroke="transparent" points="391.5,-767 391.5,-769 1058.5,-769 1058.5,-767 391.5,-767"/>
<text text-anchor="start" x="422" y="-753.8" font-family="arial" font-size="14.00">oem11pinConnector:3:Constant 12 volts</text>
<text text-anchor="start" x="695.5" y="-753.8" font-family="arial" font-size="14.00"> &#160;&#160;&#160;&#160;2:RDWH &#160;&#160;&#160;</text>
<text text-anchor="start" x="793" y="-753.8" font-family="arial" font-size="14.00">truckConnector:2:constant 12 volts 20 amp</text>
<polygon fill="#000000" stroke="transparent" points="391.5,-746 391.5,-748 1058.5,-748 1058.5,-746 391.5,-746"/>
<polygon fill="#ff0000" stroke="transparent" points="391.5,-744 391.5,-746 1058.5,-746 1058.5,-744 391.5,-744"/>
<polygon fill="#ffffff" stroke="transparent" points="391.5,-742 391.5,-744 1058.5,-744 1058.5,-742 391.5,-742"/>
<polygon fill="#ff0000" stroke="transparent" points="391.5,-740 391.5,-742 1058.5,-742 1058.5,-740 391.5,-740"/>
<polygon fill="#000000" stroke="transparent" points="391.5,-738 391.5,-740 1058.5,-740 1058.5,-738 391.5,-738"/>
<text text-anchor="start" x="444" y="-724.8" font-family="arial" font-size="14.00">oem14pinConnector:8:WTS light</text>
<text text-anchor="start" x="696.5" y="-724.8" font-family="arial" font-size="14.00"> &#160;&#160;&#160;&#160;3:OGBK &#160;&#160;&#160;</text>
<text text-anchor="start" x="819.5" y="-724.8" font-family="arial" font-size="14.00">truckConnector:6:wait to start light</text>
<polygon fill="#000000" stroke="transparent" points="391.5,-717 391.5,-719 1058.5,-719 1058.5,-717 391.5,-717"/>
<polygon fill="#ff8000" stroke="transparent" points="391.5,-715 391.5,-717 1058.5,-717 1058.5,-715 391.5,-715"/>
<polygon fill="#000000" stroke="transparent" points="391.5,-713 391.5,-715 1058.5,-715 1058.5,-713 391.5,-713"/>
<polygon fill="#ff8000" stroke="transparent" points="391.5,-711 391.5,-713 1058.5,-713 1058.5,-711 391.5,-711"/>
<polygon fill="#000000" stroke="transparent" points="391.5,-709 391.5,-711 1058.5,-711 1058.5,-709 391.5,-709"/>
<text text-anchor="start" x="430.5" y="-695.8" font-family="arial" font-size="14.00">oem14pinConnector:12:VP44 ground</text>
<text text-anchor="start" x="697.5" y="-695.8" font-family="arial" font-size="14.00"> &#160;&#160;&#160;&#160;4:BKBG &#160;&#160;&#160;</text>
<text text-anchor="start" x="847.5" y="-695.8" font-family="arial" font-size="14.00">truckConnector:5:ground</text>
<polygon fill="#000000" stroke="transparent" points="391.5,-688 391.5,-690 1058.5,-690 1058.5,-688 391.5,-688"/>
<polygon fill="#000000" stroke="transparent" points="391.5,-686 391.5,-688 1058.5,-688 1058.5,-686 391.5,-686"/>
<polygon fill="#ceb673" stroke="transparent" points="391.5,-684 391.5,-686 1058.5,-686 1058.5,-684 391.5,-684"/>
<polygon fill="#000000" stroke="transparent" points="391.5,-682 391.5,-684 1058.5,-684 1058.5,-682 391.5,-682"/>
<polygon fill="#000000" stroke="transparent" points="391.5,-680 391.5,-682 1058.5,-682 1058.5,-680 391.5,-680"/>
<text text-anchor="start" x="393.5" y="-666.8" font-family="arial" font-size="14.00">oem14pinConnector:13:intake air heater 1 control</text>
<text text-anchor="start" x="698.5" y="-666.8" font-family="arial" font-size="14.00"> &#160;&#160;&#160;&#160;5:YEBK &#160;&#160;&#160;</text>
<text text-anchor="start" x="830.5" y="-666.8" font-family="arial" font-size="14.00">truckConnector:3:grid heater 1</text>
<polygon fill="#000000" stroke="transparent" points="391.5,-659 391.5,-661 1058.5,-661 1058.5,-659 391.5,-659"/>
<polygon fill="#ffff00" stroke="transparent" points="391.5,-657 391.5,-659 1058.5,-659 1058.5,-657 391.5,-657"/>
<polygon fill="#000000" stroke="transparent" points="391.5,-655 391.5,-657 1058.5,-657 1058.5,-655 391.5,-655"/>
<polygon fill="#ffff00" stroke="transparent" points="391.5,-653 391.5,-655 1058.5,-655 1058.5,-653 391.5,-653"/>
<polygon fill="#000000" stroke="transparent" points="391.5,-651 391.5,-653 1058.5,-653 1058.5,-651 391.5,-651"/>
<text text-anchor="start" x="393.5" y="-637.8" font-family="arial" font-size="14.00">oem14pinConnector:14:intake air heater 2 control</text>
<text text-anchor="start" x="696.5" y="-637.8" font-family="arial" font-size="14.00"> &#160;&#160;&#160;&#160;6:OGBK &#160;&#160;&#160;</text>
<text text-anchor="start" x="830.5" y="-637.8" font-family="arial" font-size="14.00">truckConnector:4:grid heater 2</text>
<polygon fill="#000000" stroke="transparent" points="391.5,-630 391.5,-632 1058.5,-632 1058.5,-630 391.5,-630"/>
<polygon fill="#ff8000" stroke="transparent" points="391.5,-628 391.5,-630 1058.5,-630 1058.5,-628 391.5,-628"/>
<polygon fill="#000000" stroke="transparent" points="391.5,-626 391.5,-628 1058.5,-628 1058.5,-626 391.5,-626"/>
<polygon fill="#ff8000" stroke="transparent" points="391.5,-624 391.5,-626 1058.5,-626 1058.5,-624 391.5,-624"/>
<polygon fill="#000000" stroke="transparent" points="391.5,-622 391.5,-624 1058.5,-624 1058.5,-622 391.5,-622"/>
<text text-anchor="start" x="540.5" y="-608.8" font-family="arial" font-size="14.00"> </text>
</g>
<!-- oem11pinConnector&#45;&#45;truckWiringCable -->
<g id="edge9" class="edge">
<title>oem11pinConnector:e&#45;&#45;truckWiringCable:w</title>
<path fill="none" stroke="#000000" stroke-width="2" d="M247,-397C427.36,-402.97 217.61,-773.97 391,-768"/>
<path fill="none" stroke="#00ff00" stroke-width="2" d="M247,-399C425.61,-401.98 215.87,-772.98 391,-770"/>
<path fill="none" stroke="#000000" stroke-width="2" d="M247,-401C423.87,-401 214.13,-772 391,-772"/>
<path fill="none" stroke="#00ff00" stroke-width="2" d="M247,-403C422.13,-400.02 212.39,-771.02 391,-774"/>
<path fill="none" stroke="#000000" stroke-width="2" d="M247,-405C420.39,-399.03 210.64,-770.03 391,-776"/>
</g>
<!-- oem11pinConnector&#45;&#45;truckWiringCable -->
<g id="edge11" class="edge">
<title>oem11pinConnector:e&#45;&#45;truckWiringCable:w</title>
<path fill="none" stroke="#000000" stroke-width="2" d="M247,-351C434.4,-357 210.53,-745 391,-739"/>
<path fill="none" stroke="#ff0000" stroke-width="2" d="M247,-353C432.67,-356 208.79,-744 391,-741"/>
<path fill="none" stroke="#ffffff" stroke-width="2" d="M247,-355C430.94,-355 207.06,-743 391,-743"/>
<path fill="none" stroke="#ff0000" stroke-width="2" d="M247,-357C429.21,-354 205.33,-742 391,-745"/>
<path fill="none" stroke="#000000" stroke-width="2" d="M247,-359C427.47,-353 203.6,-741 391,-747"/>
</g>
<!-- oem14pinConnector -->
<g id="node2" class="node">
<title>oem14pinConnector</title>
<polygon fill="#ffffff" stroke="black" points="237.5,-996 9.5,-996 9.5,-482 237.5,-482 237.5,-996"/>
<polygon fill="none" stroke="black" points="9.5,-973 9.5,-996 237.5,-996 237.5,-973 9.5,-973"/>
<text text-anchor="start" x="62" y="-980.8" font-family="arial" font-size="14.00">oem14pinConnector</text>
<polygon fill="none" stroke="black" points="9.5,-950 9.5,-973 80.5,-973 80.5,-950 9.5,-950"/>
<text text-anchor="start" x="33.5" y="-957.8" font-family="arial" font-size="14.00">???</text>
<polygon fill="none" stroke="black" points="80.5,-950 80.5,-973 151.5,-973 151.5,-950 80.5,-950"/>
<text text-anchor="start" x="104.5" y="-957.8" font-family="arial" font-size="14.00">???</text>
<polygon fill="none" stroke="black" points="151.5,-950 151.5,-973 237.5,-973 237.5,-950 151.5,-950"/>
<text text-anchor="start" x="175.5" y="-957.8" font-family="arial" font-size="14.00">14&#45;pin</text>
<polygon fill="none" stroke="black" points="9.5,-927 9.5,-950 213.5,-950 213.5,-927 9.5,-927"/>
<text text-anchor="start" x="49.5" y="-934.8" font-family="arial" font-size="14.00">generator field driver</text>
<polygon fill="none" stroke="black" points="213.5,-927 213.5,-950 237.5,-950 237.5,-927 213.5,-927"/>
<text text-anchor="start" x="221.5" y="-934.8" font-family="arial" font-size="14.00">1</text>
<polygon fill="none" stroke="black" points="9.5,-904 9.5,-927 213.5,-927 213.5,-904 9.5,-904"/>
<text text-anchor="start" x="50" y="-911.8" font-family="arial" font-size="14.00">speed control switch</text>
<polygon fill="none" stroke="black" points="213.5,-904 213.5,-927 237.5,-927 237.5,-904 213.5,-904"/>
<text text-anchor="start" x="221.5" y="-911.8" font-family="arial" font-size="14.00">2</text>
<polygon fill="none" stroke="black" points="9.5,-881 9.5,-904 213.5,-904 213.5,-881 9.5,-881"/>
<text text-anchor="start" x="66" y="-888.8" font-family="arial" font-size="14.00">system voltage</text>
<polygon fill="none" stroke="black" points="213.5,-881 213.5,-904 237.5,-904 237.5,-881 213.5,-881"/>
<text text-anchor="start" x="221.5" y="-888.8" font-family="arial" font-size="14.00">3</text>
<polygon fill="none" stroke="black" points="9.5,-858 9.5,-881 213.5,-881 213.5,-858 9.5,-858"/>
<text text-anchor="start" x="71" y="-865.8" font-family="arial" font-size="14.00">ISO 9141 RX</text>
<polygon fill="none" stroke="black" points="213.5,-858 213.5,-881 237.5,-881 237.5,-858 213.5,-858"/>
<text text-anchor="start" x="221.5" y="-865.8" font-family="arial" font-size="14.00">4</text>
<polygon fill="none" stroke="black" points="9.5,-835 9.5,-858 213.5,-858 213.5,-835 9.5,-835"/>
<text text-anchor="start" x="72" y="-842.8" font-family="arial" font-size="14.00">ISO 9141 TX</text>
<polygon fill="none" stroke="black" points="213.5,-835 213.5,-858 237.5,-858 237.5,-835 213.5,-835"/>
<text text-anchor="start" x="221.5" y="-842.8" font-family="arial" font-size="14.00">5</text>
<polygon fill="none" stroke="black" points="9.5,-812 9.5,-835 213.5,-835 213.5,-812 9.5,-812"/>
<text text-anchor="start" x="55" y="-819.8" font-family="arial" font-size="14.00">Vehicle DataLink +</text>
<polygon fill="none" stroke="black" points="213.5,-812 213.5,-835 237.5,-835 237.5,-812 213.5,-812"/>
<text text-anchor="start" x="221.5" y="-819.8" font-family="arial" font-size="14.00">6</text>
<polygon fill="none" stroke="black" points="9.5,-789 9.5,-812 213.5,-812 213.5,-789 9.5,-789"/>
<text text-anchor="start" x="57" y="-796.8" font-family="arial" font-size="14.00">Vehicle DataLink &#45;</text>
<polygon fill="none" stroke="black" points="213.5,-789 213.5,-812 237.5,-812 237.5,-789 213.5,-789"/>
<text text-anchor="start" x="221.5" y="-796.8" font-family="arial" font-size="14.00">7</text>
<polygon fill="none" stroke="black" points="9.5,-766 9.5,-789 213.5,-789 213.5,-766 9.5,-766"/>
<text text-anchor="start" x="81.5" y="-773.8" font-family="arial" font-size="14.00">WTS light</text>
<polygon fill="none" stroke="black" points="213.5,-766 213.5,-789 237.5,-789 237.5,-766 213.5,-766"/>
<text text-anchor="start" x="221.5" y="-773.8" font-family="arial" font-size="14.00">8</text>
<polygon fill="none" stroke="black" points="9.5,-743 9.5,-766 213.5,-766 213.5,-743 9.5,-743"/>
<text text-anchor="start" x="13.5" y="-750.8" font-family="arial" font-size="14.00">A/C high pressure switch ground</text>
<polygon fill="none" stroke="black" points="213.5,-743 213.5,-766 237.5,-766 237.5,-743 213.5,-743"/>
<text text-anchor="start" x="221.5" y="-750.8" font-family="arial" font-size="14.00">9</text>
<polygon fill="none" stroke="black" points="9.5,-720 9.5,-743 213.5,-743 213.5,-720 9.5,-720"/>
<text text-anchor="start" x="57.5" y="-727.8" font-family="arial" font-size="14.00">tachometer signal</text>
<polygon fill="none" stroke="black" points="213.5,-720 213.5,-743 237.5,-743 237.5,-720 213.5,-720"/>
<text text-anchor="start" x="217.5" y="-727.8" font-family="arial" font-size="14.00">10</text>
<polygon fill="none" stroke="black" points="9.5,-697 9.5,-720 213.5,-720 213.5,-697 9.5,-697"/>
<text text-anchor="start" x="48.5" y="-704.8" font-family="arial" font-size="14.00">Brake Switch Sensor</text>
<polygon fill="none" stroke="black" points="213.5,-697 213.5,-720 237.5,-720 237.5,-697 213.5,-697"/>
<text text-anchor="start" x="217.5" y="-704.8" font-family="arial" font-size="14.00">11</text>
<polygon fill="none" stroke="black" points="9.5,-674 9.5,-697 213.5,-697 213.5,-674 9.5,-674"/>
<text text-anchor="start" x="72" y="-681.8" font-family="arial" font-size="14.00">VP44 ground</text>
<polygon fill="none" stroke="black" points="213.5,-674 213.5,-697 237.5,-697 237.5,-674 213.5,-674"/>
<text text-anchor="start" x="217.5" y="-681.8" font-family="arial" font-size="14.00">12</text>
<polygon fill="none" stroke="black" points="9.5,-651 9.5,-674 213.5,-674 213.5,-651 9.5,-651"/>
<text text-anchor="start" x="35" y="-658.8" font-family="arial" font-size="14.00">intake air heater 1 control</text>
<polygon fill="none" stroke="black" points="213.5,-651 213.5,-674 237.5,-674 237.5,-651 213.5,-651"/>
<text text-anchor="start" x="217.5" y="-658.8" font-family="arial" font-size="14.00">13</text>
<polygon fill="none" stroke="black" points="9.5,-628 9.5,-651 213.5,-651 213.5,-628 9.5,-628"/>
<text text-anchor="start" x="35" y="-635.8" font-family="arial" font-size="14.00">intake air heater 2 control</text>
<polygon fill="none" stroke="black" points="213.5,-628 213.5,-651 237.5,-651 237.5,-628 213.5,-628"/>
<text text-anchor="start" x="217.5" y="-635.8" font-family="arial" font-size="14.00">14</text>
<polygon fill="none" stroke="black" points="9.5,-482 9.5,-628 237.5,-628 237.5,-482 9.5,-482"/>
<image xlink:href="connectors/oem14pin.png" width="178px" height="138px" preserveAspectRatio="xMinYMin meet" x="34.5" y="-624"/>
</g>
<!-- oem14pinConnector&#45;&#45;truckWiringCable -->
<g id="edge13" class="edge">
<title>oem14pinConnector:e&#45;&#45;truckWiringCable:w</title>
<path fill="none" stroke="#000000" stroke-width="2" d="M238.5,-774C308.02,-777.66 313.51,-713.66 391,-710"/>
<path fill="none" stroke="#ff8000" stroke-width="2" d="M238.5,-776C310.01,-777.83 315.5,-713.83 391,-712"/>
<path fill="none" stroke="#000000" stroke-width="2" d="M238.5,-778C312,-778 317.5,-714 391,-714"/>
<path fill="none" stroke="#ff8000" stroke-width="2" d="M238.5,-780C314,-778.17 319.49,-714.17 391,-716"/>
<path fill="none" stroke="#000000" stroke-width="2" d="M238.5,-782C315.99,-778.34 321.48,-714.34 391,-718"/>
</g>
<!-- oem14pinConnector&#45;&#45;truckWiringCable -->
<g id="edge15" class="edge">
<title>oem14pinConnector:e&#45;&#45;truckWiringCable:w</title>
<path fill="none" stroke="#000000" stroke-width="2" d="M238.5,-681C306.28,-681 323.22,-681 391,-681"/>
<path fill="none" stroke="#000000" stroke-width="2" d="M238.5,-683C306.28,-683 323.22,-683 391,-683"/>
<path fill="none" stroke="#ceb673" stroke-width="2" d="M238.5,-685C306.28,-685 323.22,-685 391,-685"/>
<path fill="none" stroke="#000000" stroke-width="2" d="M238.5,-687C306.28,-687 323.22,-687 391,-687"/>
<path fill="none" stroke="#000000" stroke-width="2" d="M238.5,-689C306.28,-689 323.22,-689 391,-689"/>
</g>
<!-- oem14pinConnector&#45;&#45;truckWiringCable -->
<g id="edge17" class="edge">
<title>oem14pinConnector:e&#45;&#45;truckWiringCable:w</title>
<path fill="none" stroke="#000000" stroke-width="2" d="M238.5,-658C304.99,-658.23 321.83,-652.23 391,-652"/>
<path fill="none" stroke="#ffff00" stroke-width="2" d="M238.5,-660C305.66,-660.12 322.5,-654.12 391,-654"/>
<path fill="none" stroke="#000000" stroke-width="2" d="M238.5,-662C306.33,-662 323.17,-656 391,-656"/>
<path fill="none" stroke="#ffff00" stroke-width="2" d="M238.5,-664C307,-663.88 323.84,-657.88 391,-658"/>
<path fill="none" stroke="#000000" stroke-width="2" d="M238.5,-666C307.67,-665.77 324.51,-659.77 391,-660"/>
</g>
<!-- oem14pinConnector&#45;&#45;truckWiringCable -->
<g id="edge19" class="edge">
<title>oem14pinConnector:e&#45;&#45;truckWiringCable:w</title>
<path fill="none" stroke="#000000" stroke-width="2" d="M238.5,-635C304.14,-635.76 320.66,-623.76 391,-623"/>
<path fill="none" stroke="#ff8000" stroke-width="2" d="M238.5,-637C305.31,-637.38 321.84,-625.38 391,-625"/>
<path fill="none" stroke="#000000" stroke-width="2" d="M238.5,-639C306.49,-639 323.01,-627 391,-627"/>
<path fill="none" stroke="#ff8000" stroke-width="2" d="M238.5,-641C307.66,-640.62 324.19,-628.62 391,-629"/>
<path fill="none" stroke="#000000" stroke-width="2" d="M238.5,-643C308.84,-642.24 325.36,-630.24 391,-631"/>
</g>
<!-- truckConnector -->
<g id="node3" class="node">
<title>truckConnector</title>
<polygon fill="#ffffff" stroke="black" points="1412,-823.5 1202,-823.5 1202,-616.5 1412,-616.5 1412,-823.5"/>
<polygon fill="none" stroke="black" points="1202,-800 1202,-823 1412,-823 1412,-800 1202,-800"/>
<text text-anchor="start" x="1261" y="-807.8" font-family="arial" font-size="14.00">truckConnector</text>
<polygon fill="none" stroke="black" points="1202,-777 1202,-800 1412,-800 1412,-777 1202,-777"/>
<text text-anchor="start" x="1291.5" y="-784.8" font-family="arial" font-size="14.00">6&#45;pin</text>
<polygon fill="none" stroke="black" points="1202,-754 1202,-777 1221,-777 1221,-754 1202,-754"/>
<text text-anchor="start" x="1207.5" y="-761.8" font-family="arial" font-size="14.00">1</text>
<polygon fill="none" stroke="black" points="1221,-754 1221,-777 1394,-777 1394,-754 1221,-754"/>
<text text-anchor="start" x="1226" y="-761.8" font-family="arial" font-size="14.00">hot in run and start 10 amp</text>
<polygon fill="none" stroke="black" points="1394,-754 1394,-777 1412,-777 1412,-754 1394,-754"/>
<text text-anchor="start" x="1399" y="-761.8" font-family="arial" font-size="14.00">1</text>
<polygon fill="none" stroke="black" points="1202,-731 1202,-754 1221,-754 1221,-731 1202,-731"/>
<text text-anchor="start" x="1207.5" y="-738.8" font-family="arial" font-size="14.00">2</text>
<polygon fill="none" stroke="black" points="1221,-731 1221,-754 1394,-754 1394,-731 1221,-731"/>
<text text-anchor="start" x="1232" y="-738.8" font-family="arial" font-size="14.00">constant 12 volts 20 amp</text>
<polygon fill="none" stroke="black" points="1394,-731 1394,-754 1412,-754 1412,-731 1394,-731"/>
<text text-anchor="start" x="1399" y="-738.8" font-family="arial" font-size="14.00">2</text>
<polygon fill="none" stroke="black" points="1202,-708 1202,-731 1221,-731 1221,-708 1202,-708"/>
<text text-anchor="start" x="1207.5" y="-715.8" font-family="arial" font-size="14.00">3</text>
<polygon fill="none" stroke="black" points="1221,-708 1221,-731 1394,-731 1394,-708 1221,-708"/>
<text text-anchor="start" x="1269.5" y="-715.8" font-family="arial" font-size="14.00">grid heater 1</text>
<polygon fill="none" stroke="black" points="1394,-708 1394,-731 1412,-731 1412,-708 1394,-708"/>
<text text-anchor="start" x="1399" y="-715.8" font-family="arial" font-size="14.00">3</text>
<polygon fill="none" stroke="black" points="1202,-685 1202,-708 1221,-708 1221,-685 1202,-685"/>
<text text-anchor="start" x="1207.5" y="-692.8" font-family="arial" font-size="14.00">4</text>
<polygon fill="none" stroke="black" points="1221,-685 1221,-708 1394,-708 1394,-685 1221,-685"/>
<text text-anchor="start" x="1269.5" y="-692.8" font-family="arial" font-size="14.00">grid heater 2</text>
<polygon fill="none" stroke="black" points="1394,-685 1394,-708 1412,-708 1412,-685 1394,-685"/>
<text text-anchor="start" x="1399" y="-692.8" font-family="arial" font-size="14.00">4</text>
<polygon fill="none" stroke="black" points="1202,-662 1202,-685 1221,-685 1221,-662 1202,-662"/>
<text text-anchor="start" x="1207.5" y="-669.8" font-family="arial" font-size="14.00">5</text>
<polygon fill="none" stroke="black" points="1221,-662 1221,-685 1394,-685 1394,-662 1221,-662"/>
<text text-anchor="start" x="1286" y="-669.8" font-family="arial" font-size="14.00">ground</text>
<polygon fill="none" stroke="black" points="1394,-662 1394,-685 1412,-685 1412,-662 1394,-662"/>
<text text-anchor="start" x="1399" y="-669.8" font-family="arial" font-size="14.00">5</text>
<polygon fill="none" stroke="black" points="1202,-639 1202,-662 1221,-662 1221,-639 1202,-639"/>
<text text-anchor="start" x="1207.5" y="-646.8" font-family="arial" font-size="14.00">6</text>
<polygon fill="none" stroke="black" points="1221,-639 1221,-662 1394,-662 1394,-639 1221,-639"/>
<text text-anchor="start" x="1258.5" y="-646.8" font-family="arial" font-size="14.00">wait to start light</text>
<polygon fill="none" stroke="black" points="1394,-639 1394,-662 1412,-662 1412,-639 1394,-639"/>
<text text-anchor="start" x="1399" y="-646.8" font-family="arial" font-size="14.00">6</text>
<polygon fill="none" stroke="black" points="1202,-616 1202,-639 1412,-639 1412,-616 1202,-616"/>
<text text-anchor="start" x="1206" y="-623.8" font-family="arial" font-size="14.00">wait to start light grounds the wire</text>
</g>
<!-- truckConnector&#45;&#45;relayCable -->
<g id="edge7" class="edge">
<title>truckConnector:e&#45;&#45;relayCable:w</title>
<path fill="none" stroke="#000000" stroke-width="2" d="M1412,-669C1552.72,-674.78 1408.12,-383.78 1556,-378"/>
<path fill="none" stroke="#000000" stroke-width="2" d="M1412,-671C1554.51,-673.89 1409.91,-382.89 1556,-380"/>
<path fill="none" stroke="#000000" stroke-width="2" d="M1412,-673C1556.3,-673 1411.7,-382 1556,-382"/>
<path fill="none" stroke="#000000" stroke-width="2" d="M1412,-675C1558.09,-672.11 1413.49,-381.11 1556,-384"/>
<path fill="none" stroke="#000000" stroke-width="2" d="M1412,-677C1559.88,-671.22 1415.28,-380.22 1556,-386"/>
</g>
<!-- relayConnector -->
<g id="node4" class="node">
<title>relayConnector</title>
<polygon fill="#ffffff" stroke="black" points="2316,-430 2216,-430 2216,-292 2316,-292 2316,-430"/>
<polygon fill="none" stroke="black" points="2216,-407 2216,-430 2316,-430 2316,-407 2216,-407"/>
<text text-anchor="start" x="2220" y="-414.8" font-family="arial" font-size="14.00">relayConnector</text>
<polygon fill="none" stroke="black" points="2216,-384 2216,-407 2316,-407 2316,-384 2216,-384"/>
<text text-anchor="start" x="2250.5" y="-391.8" font-family="arial" font-size="14.00">4&#45;pin</text>
<polygon fill="none" stroke="black" points="2216,-361 2216,-384 2262,-384 2262,-361 2216,-361"/>
<text text-anchor="start" x="2235" y="-368.8" font-family="arial" font-size="14.00">1</text>
<polygon fill="none" stroke="black" points="2262,-361 2262,-384 2316,-384 2316,-361 2262,-361"/>
<text text-anchor="start" x="2281" y="-368.8" font-family="arial" font-size="14.00">30</text>
<polygon fill="none" stroke="black" points="2216,-338 2216,-361 2262,-361 2262,-338 2216,-338"/>
<text text-anchor="start" x="2235" y="-345.8" font-family="arial" font-size="14.00">2</text>
<polygon fill="none" stroke="black" points="2262,-338 2262,-361 2316,-361 2316,-338 2262,-338"/>
<text text-anchor="start" x="2281" y="-345.8" font-family="arial" font-size="14.00">87</text>
<polygon fill="none" stroke="black" points="2216,-315 2216,-338 2262,-338 2262,-315 2216,-315"/>
<text text-anchor="start" x="2235" y="-322.8" font-family="arial" font-size="14.00">3</text>
<polygon fill="none" stroke="black" points="2262,-315 2262,-338 2316,-338 2316,-315 2262,-315"/>
<text text-anchor="start" x="2281" y="-322.8" font-family="arial" font-size="14.00">85</text>
<polygon fill="none" stroke="black" points="2216,-292 2216,-315 2262,-315 2262,-292 2216,-292"/>
<text text-anchor="start" x="2235" y="-299.8" font-family="arial" font-size="14.00">4</text>
<polygon fill="none" stroke="black" points="2262,-292 2262,-315 2316,-315 2316,-292 2262,-292"/>
<text text-anchor="start" x="2281" y="-299.8" font-family="arial" font-size="14.00">86</text>
</g>
<!-- relayCable&#45;&#45;relayConnector -->
<g id="edge2" class="edge">
<title>relayCable:e&#45;&#45;relayConnector:w</title>
<path fill="none" stroke="#000000" stroke-width="2" d="M2072,-349C2139.83,-350.62 2154.6,-370.62 2216,-369"/>
<path fill="none" stroke="#ff0000" stroke-width="2" d="M2072,-351C2138.22,-351.81 2152.99,-371.81 2216,-371"/>
<path fill="none" stroke="#ffffff" stroke-width="2" d="M2072,-353C2136.61,-353 2151.39,-373 2216,-373"/>
<path fill="none" stroke="#ff0000" stroke-width="2" d="M2072,-355C2135.01,-354.19 2149.78,-374.19 2216,-375"/>
<path fill="none" stroke="#000000" stroke-width="2" d="M2072,-357C2133.4,-355.38 2148.17,-375.38 2216,-377"/>
</g>
<!-- relayCable&#45;&#45;relayConnector -->
<g id="edge4" class="edge">
<title>relayCable:e&#45;&#45;relayConnector:w</title>
<path fill="none" stroke="#000000" stroke-width="2" d="M2072,-320C2133.4,-321.71 2148.04,-300.71 2216,-299"/>
<path fill="none" stroke="#895956" stroke-width="2" d="M2072,-322C2135.04,-322.86 2149.68,-301.86 2216,-301"/>
<path fill="none" stroke="#ffffff" stroke-width="2" d="M2072,-324C2136.68,-324 2151.32,-303 2216,-303"/>
<path fill="none" stroke="#895956" stroke-width="2" d="M2072,-326C2138.32,-325.14 2152.96,-304.14 2216,-305"/>
<path fill="none" stroke="#000000" stroke-width="2" d="M2072,-328C2139.96,-326.29 2154.6,-305.29 2216,-307"/>
</g>
<!-- relayCable&#45;&#45;relayConnector -->
<g id="edge6" class="edge">
<title>relayCable:e&#45;&#45;relayConnector:w</title>
<path fill="none" stroke="#000000" stroke-width="2" d="M2072,-291C2144.32,-294.46 2151.61,-348.46 2216,-345"/>
<path fill="none" stroke="#ff0000" stroke-width="2" d="M2072,-293C2142.33,-294.73 2149.63,-348.73 2216,-347"/>
<path fill="none" stroke="#00ff00" stroke-width="2" d="M2072,-295C2140.35,-295 2147.65,-349 2216,-349"/>
<path fill="none" stroke="#ff0000" stroke-width="2" d="M2072,-297C2138.37,-295.27 2145.67,-349.27 2216,-351"/>
<path fill="none" stroke="#000000" stroke-width="2" d="M2072,-299C2136.39,-295.54 2143.68,-349.54 2216,-353"/>
</g>
<!-- relayCable&#45;&#45;relayConnector -->
<g id="edge8" class="edge">
<title>relayCable:e&#45;&#45;relayConnector:w</title>
<path fill="none" stroke="#000000" stroke-width="2" d="M2072,-378C2136.7,-381.53 2143.36,-325.53 2216,-322"/>
<path fill="none" stroke="#000000" stroke-width="2" d="M2072,-380C2138.68,-381.76 2145.34,-325.76 2216,-324"/>
<path fill="none" stroke="#000000" stroke-width="2" d="M2072,-382C2140.67,-382 2147.33,-326 2216,-326"/>
<path fill="none" stroke="#000000" stroke-width="2" d="M2072,-384C2142.66,-382.24 2149.32,-326.24 2216,-328"/>
<path fill="none" stroke="#000000" stroke-width="2" d="M2072,-386C2144.64,-382.47 2151.3,-326.47 2216,-330"/>
</g>
<!-- truckWiringCable&#45;&#45;truckConnector -->
<g id="edge10" class="edge">
<title>truckWiringCable:e&#45;&#45;truckConnector:w</title>
<path fill="none" stroke="#000000" stroke-width="2" d="M1058,-768C1120.64,-768.26 1136.53,-762.26 1202,-762"/>
<path fill="none" stroke="#00ff00" stroke-width="2" d="M1058,-770C1121.35,-770.13 1137.24,-764.13 1202,-764"/>
<path fill="none" stroke="#000000" stroke-width="2" d="M1058,-772C1122.06,-772 1137.94,-766 1202,-766"/>
<path fill="none" stroke="#00ff00" stroke-width="2" d="M1058,-774C1122.76,-773.87 1138.65,-767.87 1202,-768"/>
<path fill="none" stroke="#000000" stroke-width="2" d="M1058,-776C1123.47,-775.74 1139.36,-769.74 1202,-770"/>
</g>
<!-- truckWiringCable&#45;&#45;truckConnector -->
<g id="edge12" class="edge">
<title>truckWiringCable:e&#45;&#45;truckConnector:w</title>
<path fill="none" stroke="#000000" stroke-width="2" d="M1058,-739C1122,-739 1138,-739 1202,-739"/>
<path fill="none" stroke="#ff0000" stroke-width="2" d="M1058,-741C1122,-741 1138,-741 1202,-741"/>
<path fill="none" stroke="#ffffff" stroke-width="2" d="M1058,-743C1122,-743 1138,-743 1202,-743"/>
<path fill="none" stroke="#ff0000" stroke-width="2" d="M1058,-745C1122,-745 1138,-745 1202,-745"/>
<path fill="none" stroke="#000000" stroke-width="2" d="M1058,-747C1122,-747 1138,-747 1202,-747"/>
</g>
<!-- truckWiringCable&#45;&#45;truckConnector -->
<g id="edge14" class="edge">
<title>truckWiringCable:e&#45;&#45;truckConnector:w</title>
<path fill="none" stroke="#000000" stroke-width="2" d="M1058,-710C1124.04,-713.76 1127.97,-649.76 1202,-646"/>
<path fill="none" stroke="#ff8000" stroke-width="2" d="M1058,-712C1126.04,-713.88 1129.97,-649.88 1202,-648"/>
<path fill="none" stroke="#000000" stroke-width="2" d="M1058,-714C1128.04,-714 1131.96,-650 1202,-650"/>
<path fill="none" stroke="#ff8000" stroke-width="2" d="M1058,-716C1130.03,-714.12 1133.96,-650.12 1202,-652"/>
<path fill="none" stroke="#000000" stroke-width="2" d="M1058,-718C1132.03,-714.24 1135.96,-650.24 1202,-654"/>
</g>
<!-- truckWiringCable&#45;&#45;truckConnector -->
<g id="edge16" class="edge">
<title>truckWiringCable:e&#45;&#45;truckConnector:w</title>
<path fill="none" stroke="#000000" stroke-width="2" d="M1058,-681C1119.78,-681.83 1135.34,-669.83 1202,-669"/>
<path fill="none" stroke="#000000" stroke-width="2" d="M1058,-683C1121,-683.42 1136.56,-671.42 1202,-671"/>
<path fill="none" stroke="#ceb673" stroke-width="2" d="M1058,-685C1122.22,-685 1137.78,-673 1202,-673"/>
<path fill="none" stroke="#000000" stroke-width="2" d="M1058,-687C1123.44,-686.58 1139,-674.58 1202,-675"/>
<path fill="none" stroke="#000000" stroke-width="2" d="M1058,-689C1124.66,-688.17 1140.22,-676.17 1202,-677"/>
</g>
<!-- truckWiringCable&#45;&#45;truckConnector -->
<g id="edge18" class="edge">
<title>truckWiringCable:e&#45;&#45;truckConnector:w</title>
<path fill="none" stroke="#000000" stroke-width="2" d="M1058,-652C1131.85,-655.73 1136.13,-718.73 1202,-715"/>
<path fill="none" stroke="#ffff00" stroke-width="2" d="M1058,-654C1129.85,-655.86 1134.14,-718.86 1202,-717"/>
<path fill="none" stroke="#000000" stroke-width="2" d="M1058,-656C1127.86,-656 1132.14,-719 1202,-719"/>
<path fill="none" stroke="#ffff00" stroke-width="2" d="M1058,-658C1125.86,-656.14 1130.15,-719.14 1202,-721"/>
<path fill="none" stroke="#000000" stroke-width="2" d="M1058,-660C1123.87,-656.27 1128.15,-719.27 1202,-723"/>
</g>
<!-- truckWiringCable&#45;&#45;truckConnector -->
<g id="edge20" class="edge">
<title>truckWiringCable:e&#45;&#45;truckConnector:w</title>
<path fill="none" stroke="#000000" stroke-width="2" d="M1058,-623C1132.97,-626.88 1135.03,-695.88 1202,-692"/>
<path fill="none" stroke="#ff8000" stroke-width="2" d="M1058,-625C1130.97,-626.94 1133.03,-695.94 1202,-694"/>
<path fill="none" stroke="#000000" stroke-width="2" d="M1058,-627C1128.97,-627 1131.03,-696 1202,-696"/>
<path fill="none" stroke="#ff8000" stroke-width="2" d="M1058,-629C1126.97,-627.06 1129.03,-696.06 1202,-698"/>
<path fill="none" stroke="#000000" stroke-width="2" d="M1058,-631C1124.97,-627.12 1127.03,-696.12 1202,-700"/>
</g>
</g>
</svg>
