<?xml version="1.0" encoding="UTF-8" standalone="no"?>
<!DOCTYPE svg PUBLIC "-//W3C//DTD SVG 1.1//EN"
 "http://www.w3.org/Graphics/SVG/1.1/DTD/svg11.dtd">
<!-- Generated by graphviz version 2.43.0 (0)
 -->
<!-- Title: %3 Pages: 1 -->
<svg width="1761pt" height="818pt"
 viewBox="0.00 0.00 1761.00 818.00" xmlns="http://www.w3.org/2000/svg" xmlns:xlink="http://www.w3.org/1999/xlink">
<g id="graph0" class="graph" transform="scale(1 1) rotate(0) translate(4 814)">
<title>%3</title>
<polygon fill="#ffffff" stroke="transparent" points="-4,4 -4,-814 1757,-814 1757,4 -4,4"/>
<!-- pedal -->
<g id="node1" class="node">
<title>pedal</title>
<polygon fill="#ffffff" stroke="black" points="488,-810 0,-810 0,0 488,0 488,-810"/>
<polygon fill="none" stroke="black" points="0,-787 0,-810 488,-810 488,-787 0,-787"/>
<text text-anchor="start" x="227" y="-794.8" font-family="arial" font-size="14.00">pedal</text>
<polygon fill="none" stroke="black" points="0,-764 0,-787 488,-787 488,-764 0,-764"/>
<text text-anchor="start" x="194" y="-771.8" font-family="arial" font-size="14.00">Ford: WPT&#45;1326</text>
<polygon fill="none" stroke="black" points="0,-741 0,-764 264,-764 264,-741 0,-741"/>
<text text-anchor="start" x="93.5" y="-748.8" font-family="arial" font-size="14.00">Female Plug</text>
<polygon fill="none" stroke="black" points="264,-741 264,-764 488,-764 488,-741 264,-741"/>
<text text-anchor="start" x="357" y="-748.8" font-family="arial" font-size="14.00">10&#45;pin</text>
<polygon fill="none" stroke="black" points="0,-718 0,-741 279,-741 279,-718 0,-718"/>
<text text-anchor="start" x="128" y="-725.8" font-family="arial" font-size="14.00">one</text>
<polygon fill="none" stroke="black" points="279,-718 279,-741 488,-741 488,-718 279,-718"/>
<text text-anchor="start" x="379.5" y="-725.8" font-family="arial" font-size="14.00">1</text>
<polygon fill="none" stroke="black" points="0,-695 0,-718 279,-718 279,-695 0,-695"/>
<text text-anchor="start" x="128.5" y="-702.8" font-family="arial" font-size="14.00">two</text>
<polygon fill="none" stroke="black" points="279,-695 279,-718 488,-718 488,-695 279,-695"/>
<text text-anchor="start" x="379.5" y="-702.8" font-family="arial" font-size="14.00">2</text>
<polygon fill="none" stroke="black" points="0,-672 0,-695 279,-695 279,-672 0,-672"/>
<text text-anchor="start" x="124" y="-679.8" font-family="arial" font-size="14.00">three</text>
<polygon fill="none" stroke="black" points="279,-672 279,-695 488,-695 488,-672 279,-672"/>
<text text-anchor="start" x="379.5" y="-679.8" font-family="arial" font-size="14.00">3</text>
<polygon fill="none" stroke="black" points="0,-649 0,-672 279,-672 279,-649 0,-649"/>
<text text-anchor="start" x="127.5" y="-656.8" font-family="arial" font-size="14.00">four</text>
<polygon fill="none" stroke="black" points="279,-649 279,-672 488,-672 488,-649 279,-649"/>
<text text-anchor="start" x="379.5" y="-656.8" font-family="arial" font-size="14.00">4</text>
<polygon fill="none" stroke="black" points="0,-626 0,-649 279,-649 279,-626 0,-626"/>
<text text-anchor="start" x="128.5" y="-633.8" font-family="arial" font-size="14.00">five</text>
<polygon fill="none" stroke="black" points="279,-626 279,-649 488,-649 488,-626 279,-626"/>
<text text-anchor="start" x="379.5" y="-633.8" font-family="arial" font-size="14.00">5</text>
<polygon fill="none" stroke="black" points="0,-603 0,-626 279,-626 279,-603 0,-603"/>
<text text-anchor="start" x="106.5" y="-610.8" font-family="arial" font-size="14.00">Idle Switch</text>
<polygon fill="none" stroke="black" points="279,-603 279,-626 488,-626 488,-603 279,-603"/>
<text text-anchor="start" x="379.5" y="-610.8" font-family="arial" font-size="14.00">6</text>
<polygon fill="none" stroke="black" points="0,-580 0,-603 279,-603 279,-580 0,-580"/>
<text text-anchor="start" x="103.5" y="-587.8" font-family="arial" font-size="14.00">Idle Ground</text>
<polygon fill="none" stroke="black" points="279,-580 279,-603 488,-603 488,-580 279,-580"/>
<text text-anchor="start" x="379.5" y="-587.8" font-family="arial" font-size="14.00">7</text>
<polygon fill="none" stroke="black" points="0,-557 0,-580 279,-580 279,-557 0,-557"/>
<text text-anchor="start" x="100.5" y="-564.8" font-family="arial" font-size="14.00">APPS Signal</text>
<polygon fill="none" stroke="black" points="279,-557 279,-580 488,-580 488,-557 279,-557"/>
<text text-anchor="start" x="379.5" y="-564.8" font-family="arial" font-size="14.00">8</text>
<polygon fill="none" stroke="black" points="0,-534 0,-557 279,-557 279,-534 0,-534"/>
<text text-anchor="start" x="96.5" y="-541.8" font-family="arial" font-size="14.00">APPS Ground</text>
<polygon fill="none" stroke="black" points="279,-534 279,-557 488,-557 488,-534 279,-534"/>
<text text-anchor="start" x="379.5" y="-541.8" font-family="arial" font-size="14.00">9</text>
<polygon fill="none" stroke="black" points="0,-511 0,-534 279,-534 279,-511 0,-511"/>
<text text-anchor="start" x="100" y="-518.8" font-family="arial" font-size="14.00">APPS Power</text>
<polygon fill="none" stroke="black" points="279,-511 279,-534 488,-534 488,-511 279,-511"/>
<text text-anchor="start" x="375.5" y="-518.8" font-family="arial" font-size="14.00">10</text>
<polygon fill="none" stroke="black" points="0,-23 0,-511 488,-511 488,-23 0,-23"/>
<image xlink:href="connectors/wrt-1326.jpg" width="480px" height="480px" preserveAspectRatio="xMinYMin meet" x="4" y="-507"/>
<polygon fill="none" stroke="black" points="0,0 0,-23 488,-23 488,0 0,0"/>
<text text-anchor="start" x="41" y="-7.8" font-family="arial" font-size="14.00">if you know a part number for this that isn&#39;t ford please let me know!</text>
</g>
<!-- patchCable -->
<g id="node3" class="node">
<title>patchCable</title>
<polygon fill="#ffffff" stroke="black" points="1013,-704 632,-704 632,-520 1013,-520 1013,-704"/>
<polygon fill="none" stroke="black" points="632.5,-681 632.5,-704 1013.5,-704 1013.5,-681 632.5,-681"/>
<text text-anchor="start" x="788.5" y="-688.8" font-family="arial" font-size="14.00">patchCable</text>
<polygon fill="none" stroke="black" points="632.5,-658 632.5,-681 804.5,-681 804.5,-658 632.5,-658"/>
<text text-anchor="start" x="711" y="-665.8" font-family="arial" font-size="14.00">4x</text>
<polygon fill="none" stroke="black" points="804.5,-658 804.5,-681 1013.5,-681 1013.5,-658 804.5,-658"/>
<text text-anchor="start" x="883" y="-665.8" font-family="arial" font-size="14.00">20 AWG</text>
<text text-anchor="start" x="699.5" y="-644.8" font-family="arial" font-size="14.00"> </text>
<text text-anchor="start" x="634.5" y="-625.8" font-family="arial" font-size="14.00">pedal:10:APPS Power</text>
<text text-anchor="start" x="774.5" y="-625.8" font-family="arial" font-size="14.00"> &#160;&#160;&#160;&#160;1:RD &#160;&#160;&#160;</text>
<text text-anchor="start" x="858.5" y="-625.8" font-family="arial" font-size="14.00">adapterPlug:1:3.3 Volts</text>
<polygon fill="#000000" stroke="transparent" points="632.5,-618 632.5,-620 1013.5,-620 1013.5,-618 632.5,-618"/>
<polygon fill="#ff0000" stroke="transparent" points="632.5,-616 632.5,-618 1013.5,-618 1013.5,-616 632.5,-616"/>
<polygon fill="#000000" stroke="transparent" points="632.5,-614 632.5,-616 1013.5,-616 1013.5,-614 632.5,-614"/>
<text text-anchor="start" x="641.5" y="-600.8" font-family="arial" font-size="14.00">pedal:7:Idle Ground</text>
<text text-anchor="start" x="775" y="-600.8" font-family="arial" font-size="14.00"> &#160;&#160;&#160;&#160;2:BK &#160;&#160;&#160;</text>
<text text-anchor="start" x="861.5" y="-600.8" font-family="arial" font-size="14.00">adapterPlug:2:Ground</text>
<polygon fill="#000000" stroke="transparent" points="632.5,-593 632.5,-595 1013.5,-595 1013.5,-593 632.5,-593"/>
<polygon fill="#000000" stroke="transparent" points="632.5,-591 632.5,-593 1013.5,-593 1013.5,-591 632.5,-591"/>
<polygon fill="#000000" stroke="transparent" points="632.5,-589 632.5,-591 1013.5,-591 1013.5,-589 632.5,-589"/>
<text text-anchor="start" x="644.5" y="-575.8" font-family="arial" font-size="14.00">pedal:6:Idle Switch</text>
<text text-anchor="start" x="772.5" y="-575.8" font-family="arial" font-size="14.00"> &#160;&#160;&#160;&#160;3:WH &#160;&#160;&#160;</text>
<text text-anchor="start" x="851.5" y="-575.8" font-family="arial" font-size="14.00">adapterPlug:3:Idle Switch</text>
<polygon fill="#000000" stroke="transparent" points="632.5,-568 632.5,-570 1013.5,-570 1013.5,-568 632.5,-568"/>
<polygon fill="#ffffff" stroke="transparent" points="632.5,-566 632.5,-568 1013.5,-568 1013.5,-566 632.5,-566"/>
<polygon fill="#000000" stroke="transparent" points="632.5,-564 632.5,-566 1013.5,-566 1013.5,-564 632.5,-564"/>
<text text-anchor="start" x="638.5" y="-550.8" font-family="arial" font-size="14.00">pedal:8:APPS Signal</text>
<text text-anchor="start" x="774" y="-550.8" font-family="arial" font-size="14.00"> &#160;&#160;&#160;&#160;4:GY &#160;&#160;&#160;</text>
<text text-anchor="start" x="845.5" y="-550.8" font-family="arial" font-size="14.00">adapterPlug:4:APPS Signal</text>
<polygon fill="#000000" stroke="transparent" points="632.5,-543 632.5,-545 1013.5,-545 1013.5,-543 632.5,-543"/>
<polygon fill="#999999" stroke="transparent" points="632.5,-541 632.5,-543 1013.5,-543 1013.5,-541 632.5,-541"/>
<polygon fill="#000000" stroke="transparent" points="632.5,-539 632.5,-541 1013.5,-541 1013.5,-539 632.5,-539"/>
<text text-anchor="start" x="699.5" y="-525.8" font-family="arial" font-size="14.00"> </text>
</g>
<!-- pedal&#45;&#45;patchCable -->
<g id="edge1" class="edge">
<title>pedal:e&#45;&#45;patchCable:w</title>
<path fill="none" stroke="#000000" stroke-width="2" d="M488,-613C553.5,-614.63 562.57,-566.63 632,-565"/>
<path fill="none" stroke="#ffffff" stroke-width="2" d="M488,-615C555.46,-615 564.54,-567 632,-567"/>
<path fill="none" stroke="#000000" stroke-width="2" d="M488,-617C557.43,-615.37 566.5,-567.37 632,-569"/>
</g>
<!-- pedal&#45;&#45;patchCable -->
<g id="edge3" class="edge">
<title>pedal:e&#45;&#45;patchCable:w</title>
<path fill="none" stroke="#000000" stroke-width="2" d="M488,-590C552,-590 568,-590 632,-590"/>
<path fill="none" stroke="#000000" stroke-width="2" d="M488,-592C552,-592 568,-592 632,-592"/>
<path fill="none" stroke="#000000" stroke-width="2" d="M488,-594C552,-594 568,-594 632,-594"/>
</g>
<!-- pedal&#45;&#45;patchCable -->
<g id="edge5" class="edge">
<title>pedal:e&#45;&#45;patchCable:w</title>
<path fill="none" stroke="#000000" stroke-width="2" d="M488,-567C551.33,-568.09 565.1,-541.09 632,-540"/>
<path fill="none" stroke="#999999" stroke-width="2" d="M488,-569C553.12,-569 566.88,-542 632,-542"/>
<path fill="none" stroke="#000000" stroke-width="2" d="M488,-571C554.9,-569.91 568.67,-542.91 632,-544"/>
</g>
<!-- pedal&#45;&#45;patchCable -->
<g id="edge7" class="edge">
<title>pedal:e&#45;&#45;patchCable:w</title>
<path fill="none" stroke="#000000" stroke-width="2" d="M488,-544C557.14,-545.59 566.77,-591.59 632,-590"/>
<path fill="none" stroke="#000000" stroke-width="2" d="M488,-546C555.19,-546 564.81,-592 632,-592"/>
<path fill="none" stroke="#000000" stroke-width="2" d="M488,-548C553.23,-546.41 562.86,-592.41 632,-594"/>
</g>
<!-- pedal&#45;&#45;patchCable -->
<g id="edge9" class="edge">
<title>pedal:e&#45;&#45;patchCable:w</title>
<path fill="none" stroke="#000000" stroke-width="2" d="M488,-521C566.42,-523.19 557.56,-617.19 632,-615"/>
<path fill="none" stroke="#ff0000" stroke-width="2" d="M488,-523C564.43,-523 555.57,-617 632,-617"/>
<path fill="none" stroke="#000000" stroke-width="2" d="M488,-525C562.44,-522.81 553.58,-616.81 632,-619"/>
</g>
<!-- adapterPlug -->
<g id="node2" class="node">
<title>adapterPlug</title>
<polygon fill="#ffffff" stroke="black" points="1753,-695.5 1157,-695.5 1157,-358.5 1753,-358.5 1753,-695.5"/>
<polygon fill="none" stroke="black" points="1157,-672 1157,-695 1753,-695 1753,-672 1157,-672"/>
<text text-anchor="start" x="1418.5" y="-679.8" font-family="arial" font-size="14.00">adapterPlug</text>
<polygon fill="none" stroke="black" points="1157,-649 1157,-672 1753,-672 1753,-649 1157,-649"/>
<text text-anchor="start" x="1399" y="-656.8" font-family="arial" font-size="14.00">Deutsch: DT06&#45;4S</text>
<polygon fill="none" stroke="black" points="1157,-626 1157,-649 1470,-649 1470,-626 1157,-626"/>
<text text-anchor="start" x="1283" y="-633.8" font-family="arial" font-size="14.00">Male Plug</text>
<polygon fill="none" stroke="black" points="1470,-626 1470,-649 1753,-649 1753,-626 1470,-626"/>
<text text-anchor="start" x="1596" y="-633.8" font-family="arial" font-size="14.00">4&#45;pin</text>
<polygon fill="none" stroke="black" points="1157,-603 1157,-626 1420,-626 1420,-603 1157,-603"/>
<text text-anchor="start" x="1284.5" y="-610.8" font-family="arial" font-size="14.00">1</text>
<polygon fill="none" stroke="black" points="1420,-603 1420,-626 1753,-626 1753,-603 1420,-603"/>
<text text-anchor="start" x="1560.5" y="-610.8" font-family="arial" font-size="14.00">3.3 Volts</text>
<polygon fill="none" stroke="black" points="1157,-580 1157,-603 1420,-603 1420,-580 1157,-580"/>
<text text-anchor="start" x="1284.5" y="-587.8" font-family="arial" font-size="14.00">2</text>
<polygon fill="none" stroke="black" points="1420,-580 1420,-603 1753,-603 1753,-580 1420,-580"/>
<text text-anchor="start" x="1563.5" y="-587.8" font-family="arial" font-size="14.00">Ground</text>
<polygon fill="none" stroke="black" points="1157,-557 1157,-580 1420,-580 1420,-557 1157,-557"/>
<text text-anchor="start" x="1284.5" y="-564.8" font-family="arial" font-size="14.00">3</text>
<polygon fill="none" stroke="black" points="1420,-557 1420,-580 1753,-580 1753,-557 1420,-557"/>
<text text-anchor="start" x="1553.5" y="-564.8" font-family="arial" font-size="14.00">Idle Switch</text>
<polygon fill="none" stroke="black" points="1157,-534 1157,-557 1420,-557 1420,-534 1157,-534"/>
<text text-anchor="start" x="1284.5" y="-541.8" font-family="arial" font-size="14.00">4</text>
<polygon fill="none" stroke="black" points="1420,-534 1420,-557 1753,-557 1753,-534 1420,-534"/>
<text text-anchor="start" x="1547.5" y="-541.8" font-family="arial" font-size="14.00">APPS Signal</text>
<polygon fill="none" stroke="black" points="1157,-381 1157,-534 1753,-534 1753,-381 1157,-381"/>
<image xlink:href="connectors/DT06-4S.jpeg" width="259px" height="145px" preserveAspectRatio="xMinYMin meet" x="1325.5" y="-530"/>
<polygon fill="none" stroke="black" points="1157,-358 1157,-381 1753,-381 1753,-358 1157,-358"/>
<text text-anchor="start" x="1161" y="-365.8" font-family="arial" font-size="14.00">https://mm.digikey.com/Volume0/opasdata/d220001/medias/docus/4849/DS_1208_DT_Series.pdf</text>
</g>
<!-- patchCable&#45;&#45;adapterPlug -->
<g id="edge2" class="edge">
<title>patchCable:e&#45;&#45;adapterPlug:w</title>
<path fill="none" stroke="#000000" stroke-width="2" d="M1013,-565C1077.25,-565.02 1093.24,-567.02 1157,-567"/>
<path fill="none" stroke="#ffffff" stroke-width="2" d="M1013,-567C1077.01,-567 1092.99,-569 1157,-569"/>
<path fill="none" stroke="#000000" stroke-width="2" d="M1013,-569C1076.76,-568.98 1092.75,-570.98 1157,-571"/>
</g>
<!-- patchCable&#45;&#45;adapterPlug -->
<g id="edge4" class="edge">
<title>patchCable:e&#45;&#45;adapterPlug:w</title>
<path fill="none" stroke="#000000" stroke-width="2" d="M1013,-590C1077,-590 1093,-590 1157,-590"/>
<path fill="none" stroke="#000000" stroke-width="2" d="M1013,-592C1077,-592 1093,-592 1157,-592"/>
<path fill="none" stroke="#000000" stroke-width="2" d="M1013,-594C1077,-594 1093,-594 1157,-594"/>
</g>
<!-- patchCable&#45;&#45;adapterPlug -->
<g id="edge6" class="edge">
<title>patchCable:e&#45;&#45;adapterPlug:w</title>
<path fill="none" stroke="#000000" stroke-width="2" d="M1013,-540C1077.51,-540.06 1093.46,-544.06 1157,-544"/>
<path fill="none" stroke="#999999" stroke-width="2" d="M1013,-542C1077.02,-542 1092.98,-546 1157,-546"/>
<path fill="none" stroke="#000000" stroke-width="2" d="M1013,-544C1076.54,-543.94 1092.49,-547.94 1157,-548"/>
</g>
<!-- patchCable&#45;&#45;adapterPlug -->
<g id="edge8" class="edge">
<title>patchCable:e&#45;&#45;adapterPlug:w</title>
<path fill="none" stroke="#000000" stroke-width="2" d="M1013,-590C1077,-590 1093,-590 1157,-590"/>
<path fill="none" stroke="#000000" stroke-width="2" d="M1013,-592C1077,-592 1093,-592 1157,-592"/>
<path fill="none" stroke="#000000" stroke-width="2" d="M1013,-594C1077,-594 1093,-594 1157,-594"/>
</g>
<!-- patchCable&#45;&#45;adapterPlug -->
<g id="edge10" class="edge">
<title>patchCable:e&#45;&#45;adapterPlug:w</title>
<path fill="none" stroke="#000000" stroke-width="2" d="M1013,-615C1076.76,-615.02 1092.75,-613.02 1157,-613"/>
<path fill="none" stroke="#ff0000" stroke-width="2" d="M1013,-617C1077.01,-617 1092.99,-615 1157,-615"/>
<path fill="none" stroke="#000000" stroke-width="2" d="M1013,-619C1077.25,-618.98 1093.24,-616.98 1157,-617"/>
</g>
</g>
</svg>
